PathFileType	4	(X/Y/Z)	/Users/itak/Documents/Research/Walk-IL/dataset/trc/00189_00008.trc
DataRate	CameraRate	NumFrames	NumMarkers	Units	OrigDataRate	OrigDataStartFrame	OrigNumFrames
100.000000	100.000000	4	53	mm	100.000000	718	821
Frame#	Time	RPSI			LPSI			L3			STRN			T10			C7			CLAV			RBAK			LBAK			LSHO			LUPA			LAEL			LAOL			LWTS			LWPS			LFRA			LIFD			LHPS			LHTS			RSHO			RUPA			RAEL			RAOL			RWTS			RWPS			RFRA			RIFD			RHTS			RHPS			RBHD			LFHD			RFHD			LBHD			LHIP			RHIP			RASI			LASI			LKNE			LTHI			LANK			LTIP			LTOE			LMT1			LMT5			LHEE			RKNE			RTHI			RANK			RTIP			RTOE			RMT1			RMT5			RHEE			
		X1	Y1	Z1	X2	Y2	Z2	X3	Y3	Z3	X4	Y4	Z4	X5	Y5	Z5	X6	Y6	Z6	X7	Y7	Z7	X8	Y8	Z8	X9	Y9	Z9	X10	Y10	Z10	X11	Y11	Z11	X12	Y12	Z12	X13	Y13	Z13	X14	Y14	Z14	X15	Y15	Z15	X16	Y16	Z16	X17	Y17	Z17	X18	Y18	Z18	X19	Y19	Z19	X20	Y20	Z20	X21	Y21	Z21	X22	Y22	Z22	X23	Y23	Z23	X24	Y24	Z24	X25	Y25	Z25	X26	Y26	Z26	X27	Y27	Z27	X28	Y28	Z28	X29	Y29	Z29	X30	Y30	Z30	X31	Y31	Z31	X32	Y32	Z32	X33	Y33	Z33	X34	Y34	Z34	X35	Y35	Z35	X36	Y36	Z36	X37	Y37	Z37	X38	Y38	Z38	X39	Y39	Z39	X40	Y40	Z40	X41	Y41	Z41	X42	Y42	Z42	X43	Y43	Z43	X44	Y44	Z44	X45	Y45	Z45	X46	Y46	Z46	X47	Y47	Z47	X48	Y48	Z48	X49	Y49	Z49	X50	Y50	Z50	X51	Y51	Z51	X52	Y52	Z52	X53	Y53	Z53	

719	7.18	1008.443481445312	1057.852783203125	550.080078125	1112.221313476562	1055.977172851562	618.797119140625	1058.19580078125	1093.259765625	584.19091796875	929.0277099609375	1309.89501953125	801.0169067382812	1091.71826171875	1250.928344726562	554.474365234375	1074.88232421875	1521.581420898438	614.4440307617188	955.1752319335938	1421.586181640625	780.5029907226562	1015.265930175781	1347.683227539062	499.3236694335938	1161.325317382812	1494.747680664062	663.0809936523438	1184.066650390625	1482.783813476562	769.9732666015625	1258.262573242188	1347.7548828125	782.9141235351562	1257.24755859375	1131.585083007812	814.4701538085938	1214.458129882812	1111.132080078125	739.3106689453125	1154.324829101562	927.5545043945312	935.2150268554688	1220.207641601562	887.8428955078125	883.4602661132812	1250.375	1023.633239746094	848.0051879882812	1090.187744140625	767.5158081054688	951.2461547851562	1196.515502929688	825.1376953125	912.3275146484375	1154.999877929688	853.5042724609375	964.4696655273438	888.1377563476562	1505.445678710938	568.59814453125	841.1218872070312	1442.230224609375	512.02099609375	796.0554809570312	1158.072509765625	457.863037109375	876.59765625	1145.647583007812	511.6338806152344	717.4158325195312	934.2886962890625	580.4682006835938	723.8165893554688	916.287109375	491.9426574707031	762.3935546875	1087.001342773438	467.0250244140625	719.013427734375	745.1008911132812	605.7265625	690.6727905273438	840.9957275390625	594.8402709960938	705.8443603515625	833.9561767578125	516.3504028320312	968.4341430664062	1696.763305664062	658.406982421875	960.0592651367188	1689.754638671875	876.3209838867188	858.7216796875	1690.6337890625	793.0562744140625	1077.696899414062	1704.741821289062	739.5972290039062	1152.220458984375	993.9072265625	771.0076293945312	816.197509765625	1020.910034179688	613.8297729492188	821.8660278320312	1050.247802734375	711.8248901367188	1042.24951171875	1037.7060546875	847.3514404296875	1102.341918945312	500.6574401855469	762.9297485351562	1128.068359375	641.59716796875	782.15576171875	1134.222290039062	39.63137435913086	698.1891479492188	1126.0927734375	275.4393310546875	741.6466674804688	1001.844665527344	39.80563735961914	875.9859619140625	986.2368774414062	40.77329635620117	808.1162719726562	1115.063354492188	33.21935653686523	810.9561767578125	1101.560302734375	38.46537017822266	619.1444702148438	832.528076171875	517.4793701171875	640.51513671875	780.4418334960938	789.0809326171875	655.095947265625	887.1079711914062	34.99312210083008	576.4194946289062	844.4175415039062	399.6936950683594	656.6868286132812	790.0684814453125	41.84560775756836	778.2261962890625	859.3102416992188	41.38674926757812	758.8516845703125	795.0720825195312	36.97654342651367	648.0446166992188	970.959716796875	31.46317481994629	570.4174194335938	
720	7.19	1007.870666503906	1057.523193359375	551.2866821289062	1111.586547851562	1055.531982421875	620.04443359375	1057.51611328125	1092.807373046875	585.3963623046875	928.4078369140625	1309.428344726562	802.0640869140625	1090.912719726562	1250.515869140625	555.4747314453125	1074.106689453125	1521.190185546875	615.4342651367188	954.466796875	1421.155395507812	781.5205688476562	1014.417724609375	1347.223510742188	500.3502502441406	1160.555786132812	1494.305541992188	664.01611328125	1183.427490234375	1482.212280273438	770.92431640625	1257.448120117188	1346.989868164062	783.527099609375	1255.962890625	1130.673217773438	813.990478515625	1213.130859375	1110.90478515625	738.67724609375	1155.065185546875	922.9703979492188	930.648681640625	1221.8603515625	885.4092407226562	878.3543701171875	1250.078247070312	1022.258666992188	845.6525268554688	1093.043334960938	761.920166015625	941.72705078125	1198.9677734375	821.715576171875	905.5753173828125	1156.631713867188	848.1129760742188	958.0916748046875	887.3277587890625	1505.029541015625	569.6674194335938	840.2332763671875	1441.82177734375	513.1148071289062	794.6364135742188	1157.861328125	458.7140197753906	875.1485595703125	1145.1640625	512.4638671875	715.3536376953125	934.0318603515625	580.6365966796875	721.9096069335938	916.17724609375	492.1185607910156	760.853515625	1086.888427734375	467.6712951660156	716.1919555664062	744.8651733398438	605.6205444335938	688.1036376953125	840.883056640625	594.68896484375	703.6886596679688	833.8660888671875	516.3014526367188	967.43017578125	1696.499267578125	659.7045288085938	959.5867919921875	1689.085693359375	877.5228881835938	858.0348510742188	1690.053833007812	794.6119995117188	1076.905151367188	1704.368286132812	740.6304931640625	1151.399169921875	993.5261840820312	772.3323364257812	815.4642944335938	1020.663635253906	615.01171875	821.0883178710938	1049.849487304688	713.0374755859375	1041.437622070312	1037.296020507812	848.6220092773438	1102.69970703125	500.4647521972656	762.65576171875	1128.218139648438	641.4126586914062	782.4739990234375	1134.302978515625	39.52114486694336	698.1714477539062	1126.49951171875	275.5065612792969	741.3390502929688	1001.935607910156	39.84045028686523	875.8904418945312	986.3438110351562	40.82166290283203	808.0554809570312	1115.173461914062	33.14392852783203	810.9742431640625	1101.619262695312	38.38064956665039	619.0768432617188	833.5578002929688	517.2432861328125	638.030029296875	780.5521850585938	788.6436767578125	654.7176513671875	887.120849609375	34.92380905151367	576.3084106445312	845.2460327148438	400.0888366699219	654.454833984375	790.0452880859375	41.88240432739258	778.1090087890625	859.2759399414062	41.47814559936523	758.7467041015625	795.0406494140625	36.9155387878418	647.9387817382812	971.02294921875	31.37014579772949	570.3644409179688	
721	7.2	1007.351928710938	1057.200439453125	552.4765014648438	1110.999145507812	1055.109008789062	621.3123779296875	1056.8779296875	1092.367431640625	586.5999755859375	927.7965087890625	1308.980712890625	803.060791015625	1090.150512695312	1250.096069335938	556.4574584960938	1073.371459960938	1520.798461914062	616.3870239257812	953.787353515625	1420.739013671875	782.4945068359375	1013.627746582031	1346.756103515625	501.3349609375	1159.82666015625	1493.866577148438	664.9121704101562	1182.8232421875	1481.637939453125	771.833984375	1256.6640625	1346.219482421875	784.08740234375	1254.716064453125	1129.779663085938	813.4103393554688	1211.770385742188	1110.691162109375	737.9815063476562	1155.989501953125	918.5103149414062	925.9537963867188	1223.654418945312	883.1292114257812	873.1029052734375	1249.862060546875	1020.957336425781	843.1878662109375	1096.276245117188	756.529052734375	932.135009765625	1201.651733398438	818.4963989257812	898.6735229492188	1158.544921875	842.8743286132812	951.5543823242188	886.5709838867188	1504.611938476562	570.6677856445312	839.3959350585938	1441.400756835938	514.1307373046875	793.2565307617188	1157.624267578125	459.5534057617188	873.7376708984375	1144.670532226562	513.2756958007812	713.3345336914062	933.82080078125	580.922119140625	720.0452880859375	916.0718383789062	492.4134826660156	759.3462524414062	1086.761352539062	468.3383483886719	713.45361328125	744.6838989257812	605.7120971679688	685.5333862304688	840.814453125	594.6738891601562	701.5586547851562	833.7830200195312	516.4120483398438	966.4443359375	1696.238159179688	660.9619750976562	959.1259765625	1688.399169921875	878.6884155273438	857.3510131835938	1689.44482421875	796.1193237304688	1076.12548828125	1704.021728515625	741.6328125	1150.583374023438	993.1788940429688	773.6774291992188	814.803955078125	1020.398681640625	616.1044311523438	820.3084106445312	1049.430297851562	714.1463012695312	1040.557739257812	1036.890502929688	849.8579711914062	1102.941040039062	500.2540893554688	762.6071166992188	1128.265380859375	641.2206420898438	782.9849243164062	1134.389526367188	39.40567398071289	698.1703491210938	1126.8173828125	275.5380249023438	741.1885986328125	1002.011535644531	39.87045669555664	875.7941284179688	986.4382934570312	40.86590957641602	807.9974975585938	1115.266235351562	33.08065795898438	810.9923706054688	1101.701904296875	38.29917144775391	619.0264892578125	834.5294799804688	517.0186767578125	635.6075439453125	780.6790161132812	788.247802734375	654.3518676757812	887.1382446289062	34.86221313476562	576.1904296875	846.037353515625	400.486572265625	652.2655639648438	790.0186767578125	41.92352676391602	777.9736938476562	859.2290649414062	41.58276748657227	758.6259155273438	795.0032348632812	36.84613037109375	647.8181762695312	971.0792236328125	31.27660942077637	570.3143310546875	
722	7.21	1006.877258300781	1056.901123046875	553.6408081054688	1110.457275390625	1054.726196289062	622.5933837890625	1056.27685546875	1091.959350585938	587.7935180664062	927.184814453125	1308.562377929688	804.0084838867188	1089.431396484375	1249.68310546875	557.424072265625	1072.674682617188	1520.421997070312	617.3072509765625	953.1317749023438	1420.348266601562	783.426513671875	1012.892944335938	1346.298706054688	502.2788391113281	1159.13720703125	1493.443359375	665.7809448242188	1182.252319335938	1481.074340820312	772.7137451171875	1255.911865234375	1345.4560546875	784.5950317382812	1253.524169921875	1128.914306640625	812.7186889648438	1210.385009765625	1110.500122070312	737.21728515625	1157.11572265625	914.216796875	921.15283203125	1225.566772460938	881.0252075195312	867.7150268554688	1249.734985351562	1019.740478515625	840.6078491210938	1099.856079101562	751.4185791015625	922.546142578125	1204.526489257812	815.50927734375	891.6456298828125	1160.731201171875	837.8352661132812	944.891845703125	885.8675537109375	1504.2060546875	571.6002197265625	838.6094360351562	1440.982055664062	515.0694580078125	791.9268188476562	1157.375610351562	460.3853759765625	872.3709106445312	1144.1806640625	514.083740234375	711.3729858398438	933.6537475585938	581.3222045898438	718.2315673828125	915.9779663085938	492.827392578125	757.8796997070312	1086.627075195312	469.0367431640625	710.8147583007812	744.5537719726562	605.985107421875	682.9736328125	840.78662109375	594.7886352539062	699.4664306640625	833.7158813476562	516.6784057617188	965.4790649414062	1695.9951171875	662.178466796875	958.6823120117188	1687.71240234375	879.8270263671875	856.6766967773438	1688.82470703125	797.5801391601562	1075.35791015625	1703.714965820312	742.6019897460938	1149.781127929688	992.8714599609375	775.013671875	814.2079467773438	1020.122314453125	617.1028442382812	819.535400390625	1049.00732421875	715.1516723632812	1039.611938476562	1036.499633789062	851.0527954101562	1103.051025390625	500.0332946777344	762.7820434570312	1128.183471679688	641.0227661132812	783.6847534179688	1134.474975585938	39.29303741455078	698.1823120117188	1127.03515625	275.5349731445312	741.1876220703125	1002.071838378906	39.89508819580078	875.705078125	986.5155029296875	40.90237808227539	807.9443969726562	1115.337768554688	33.03292465209961	811.0079345703125	1101.79931640625	38.22161483764648	618.9910278320312	835.4144287109375	516.8125610351562	633.3034057617188	780.8116455078125	787.9105834960938	654.0181274414062	887.1590576171875	34.80850982666016	576.0681762695312	846.7738647460938	400.8739013671875	650.171875	789.9922485351562	41.96964263916016	777.8238525390625	859.1718139648438	41.69607543945312	758.4918823242188	794.9608764648438	36.77048492431641	647.687255859375	971.1265258789062	31.18449211120605	570.2667236328125	
